<?xml version="1.0" encoding="UTF-8" standalone="no"?>
<!DOCTYPE svg PUBLIC "-//W3C//DTD SVG 1.1//EN"
 "http://www.w3.org/Graphics/SVG/1.1/DTD/svg11.dtd">
<!-- Generated by graphviz version 7.0.3 (20221126.0506)
 -->
<!-- Title: CFG Pages: 1 -->
<svg width="541pt" height="1732pt"
 viewBox="0.00 0.00 541.25 1731.77" xmlns="http://www.w3.org/2000/svg" xmlns:xlink="http://www.w3.org/1999/xlink">
<g id="graph0" class="graph" transform="scale(1 1) rotate(0) translate(4 1727.77)">
<title>CFG</title>
<polygon fill="white" stroke="none" points="-4,4 -4,-1727.77 537.25,-1727.77 537.25,4 -4,4"/>
<!-- N_0x1000 -->
<g id="node1" class="node">
<title>N_0x1000</title>
<ellipse fill="none" stroke="black" cx="247.25" cy="-630.94" rx="64.19" ry="270.64"/>
<text text-anchor="middle" x="247.25" y="-807.24" font-family="Times New Roman,serif" font-size="14.00">0x1000: push</text>
<text text-anchor="middle" x="247.25" y="-792.24" font-family="Times New Roman,serif" font-size="14.00">0x1001: push</text>
<text text-anchor="middle" x="247.25" y="-777.24" font-family="Times New Roman,serif" font-size="14.00">0x1002: sub</text>
<text text-anchor="middle" x="247.25" y="-762.24" font-family="Times New Roman,serif" font-size="14.00">0x1006: lea</text>
<text text-anchor="middle" x="247.25" y="-747.24" font-family="Times New Roman,serif" font-size="14.00">0x100b: mov</text>
<text text-anchor="middle" x="247.25" y="-732.24" font-family="Times New Roman,serif" font-size="14.00">0x100f: mov</text>
<text text-anchor="middle" x="247.25" y="-717.24" font-family="Times New Roman,serif" font-size="14.00">0x1013: mov</text>
<text text-anchor="middle" x="247.25" y="-702.24" font-family="Times New Roman,serif" font-size="14.00">0x1017: mov</text>
<text text-anchor="middle" x="247.25" y="-687.24" font-family="Times New Roman,serif" font-size="14.00">0x101b: lea</text>
<text text-anchor="middle" x="247.25" y="-672.24" font-family="Times New Roman,serif" font-size="14.00">0x101f: mov</text>
<text text-anchor="middle" x="247.25" y="-657.24" font-family="Times New Roman,serif" font-size="14.00">0x1023: mov</text>
<text text-anchor="middle" x="247.25" y="-642.24" font-family="Times New Roman,serif" font-size="14.00">0x1027: mov</text>
<text text-anchor="middle" x="247.25" y="-627.24" font-family="Times New Roman,serif" font-size="14.00">0x102c: mov</text>
<text text-anchor="middle" x="247.25" y="-612.24" font-family="Times New Roman,serif" font-size="14.00">0x1033: call</text>
<text text-anchor="middle" x="247.25" y="-597.24" font-family="Times New Roman,serif" font-size="14.00">0x1035: mov</text>
<text text-anchor="middle" x="247.25" y="-582.24" font-family="Times New Roman,serif" font-size="14.00">0x1038: mov</text>
<text text-anchor="middle" x="247.25" y="-567.24" font-family="Times New Roman,serif" font-size="14.00">0x103c: mov</text>
<text text-anchor="middle" x="247.25" y="-552.24" font-family="Times New Roman,serif" font-size="14.00">0x103f: mov</text>
<text text-anchor="middle" x="247.25" y="-537.24" font-family="Times New Roman,serif" font-size="14.00">0x1042: call</text>
<text text-anchor="middle" x="247.25" y="-522.24" font-family="Times New Roman,serif" font-size="14.00">0x1047: mov</text>
<text text-anchor="middle" x="247.25" y="-507.24" font-family="Times New Roman,serif" font-size="14.00">0x104a: mov</text>
<text text-anchor="middle" x="247.25" y="-492.24" font-family="Times New Roman,serif" font-size="14.00">0x104d: add</text>
<text text-anchor="middle" x="247.25" y="-477.24" font-family="Times New Roman,serif" font-size="14.00">0x1051: pop</text>
<text text-anchor="middle" x="247.25" y="-462.24" font-family="Times New Roman,serif" font-size="14.00">0x1052: pop</text>
<text text-anchor="middle" x="247.25" y="-447.24" font-family="Times New Roman,serif" font-size="14.00">0x1053: ret</text>
</g>
<!-- N_0x10ad -->
<g id="node6" class="node">
<title>N_0x10ad</title>
<ellipse fill="none" stroke="black" cx="55.25" cy="-291.12" rx="55.49" ry="18"/>
<text text-anchor="middle" x="55.25" y="-287.42" font-family="Times New Roman,serif" font-size="14.00">0x10ad: jmp</text>
</g>
<!-- N_0x1000&#45;&gt;N_0x10ad -->
<g id="edge1" class="edge">
<title>N_0x1000&#45;&gt;N_0x10ad</title>
<path fill="none" stroke="black" d="M187.12,-531.49C154.16,-476.4 113.22,-406.13 79.25,-342.12 75.42,-334.92 71.51,-327.01 67.97,-319.66"/>
<polygon fill="black" stroke="black" points="71.21,-318.33 63.77,-310.78 64.89,-321.32 71.21,-318.33"/>
<text text-anchor="middle" x="130.25" y="-330.92" font-family="Times New Roman,serif" font-size="14.00">0x1000 &#45;&gt; 0x10ad</text>
</g>
<!-- N_0x10c3 -->
<g id="node8" class="node">
<title>N_0x10c3</title>
<ellipse fill="none" stroke="black" cx="183.25" cy="-291.12" rx="55.49" ry="18"/>
<text text-anchor="middle" x="183.25" y="-287.42" font-family="Times New Roman,serif" font-size="14.00">0x10c3: jmp</text>
</g>
<!-- N_0x1000&#45;&gt;N_0x10c3 -->
<g id="edge2" class="edge">
<title>N_0x1000&#45;&gt;N_0x10c3</title>
<path fill="none" stroke="black" d="M202.18,-436.72C196.02,-405.23 190.4,-372.87 186.25,-342.12 185.3,-335.16 184.66,-327.62 184.22,-320.56"/>
<polygon fill="black" stroke="black" points="187.72,-320.63 183.72,-310.82 180.73,-320.98 187.72,-320.63"/>
<text text-anchor="middle" x="237.25" y="-330.92" font-family="Times New Roman,serif" font-size="14.00">0x1000 &#45;&gt; 0x10c3</text>
</g>
<!-- N_0x10d9 -->
<g id="node10" class="node">
<title>N_0x10d9</title>
<ellipse fill="none" stroke="black" cx="311.25" cy="-291.12" rx="55.49" ry="18"/>
<text text-anchor="middle" x="311.25" y="-287.42" font-family="Times New Roman,serif" font-size="14.00">0x10d9: sub</text>
</g>
<!-- N_0x1000&#45;&gt;N_0x10d9 -->
<g id="edge3" class="edge">
<title>N_0x1000&#45;&gt;N_0x10d9</title>
<path fill="none" stroke="black" d="M287.32,-418.39C294.7,-379.44 301.47,-343.73 305.91,-320.29"/>
<polygon fill="black" stroke="black" points="309.3,-321.17 307.73,-310.7 302.43,-319.87 309.3,-321.17"/>
<text text-anchor="middle" x="356.75" y="-330.92" font-family="Times New Roman,serif" font-size="14.00">0x1000 &#45;&gt; 0x10d9</text>
</g>
<!-- N_0x1054 -->
<g id="node2" class="node">
<title>N_0x1054</title>
<ellipse fill="none" stroke="black" cx="247.25" cy="-1348.21" rx="64.19" ry="101.23"/>
<text text-anchor="middle" x="247.25" y="-1404.51" font-family="Times New Roman,serif" font-size="14.00">0x1054: push</text>
<text text-anchor="middle" x="247.25" y="-1389.51" font-family="Times New Roman,serif" font-size="14.00">0x1055: mov</text>
<text text-anchor="middle" x="247.25" y="-1374.51" font-family="Times New Roman,serif" font-size="14.00">0x1058: mov</text>
<text text-anchor="middle" x="247.25" y="-1359.51" font-family="Times New Roman,serif" font-size="14.00">0x105b: mov</text>
<text text-anchor="middle" x="247.25" y="-1344.51" font-family="Times New Roman,serif" font-size="14.00">0x105e: mov</text>
<text text-anchor="middle" x="247.25" y="-1329.51" font-family="Times New Roman,serif" font-size="14.00">0x1061: mov</text>
<text text-anchor="middle" x="247.25" y="-1314.51" font-family="Times New Roman,serif" font-size="14.00">0x1064: add</text>
<text text-anchor="middle" x="247.25" y="-1299.51" font-family="Times New Roman,serif" font-size="14.00">0x1066: pop</text>
<text text-anchor="middle" x="247.25" y="-1284.51" font-family="Times New Roman,serif" font-size="14.00">0x1067: ret</text>
</g>
<!-- N_0x1090 -->
<g id="node4" class="node">
<title>N_0x1090</title>
<ellipse fill="none" stroke="black" cx="247.25" cy="-1158.62" rx="62.87" ry="37.45"/>
<text text-anchor="middle" x="247.25" y="-1169.92" font-family="Times New Roman,serif" font-size="14.00">0x1090: mov</text>
<text text-anchor="middle" x="247.25" y="-1154.92" font-family="Times New Roman,serif" font-size="14.00">0x1093: cmp</text>
<text text-anchor="middle" x="247.25" y="-1139.92" font-family="Times New Roman,serif" font-size="14.00">0x1097: js</text>
</g>
<!-- N_0x1054&#45;&gt;N_0x1090 -->
<g id="edge4" class="edge">
<title>N_0x1054&#45;&gt;N_0x1090</title>
<path fill="none" stroke="black" d="M247.25,-1246.55C247.25,-1233.12 247.25,-1219.88 247.25,-1207.94"/>
<polygon fill="black" stroke="black" points="250.75,-1207.99 247.25,-1197.99 243.75,-1207.99 250.75,-1207.99"/>
<text text-anchor="middle" x="298.25" y="-1217.9" font-family="Times New Roman,serif" font-size="14.00">0x1054 &#45;&gt; 0x1090</text>
</g>
<!-- N_0x1068 -->
<g id="node3" class="node">
<title>N_0x1068</title>
<ellipse fill="none" stroke="black" cx="247.25" cy="-1612.05" rx="64.19" ry="111.95"/>
<text text-anchor="middle" x="247.25" y="-1675.85" font-family="Times New Roman,serif" font-size="14.00">0x1068: push</text>
<text text-anchor="middle" x="247.25" y="-1660.85" font-family="Times New Roman,serif" font-size="14.00">0x1069: mov</text>
<text text-anchor="middle" x="247.25" y="-1645.85" font-family="Times New Roman,serif" font-size="14.00">0x106c: sub</text>
<text text-anchor="middle" x="247.25" y="-1630.85" font-family="Times New Roman,serif" font-size="14.00">0x1070: call</text>
<text text-anchor="middle" x="247.25" y="-1615.85" font-family="Times New Roman,serif" font-size="14.00">0x1075: mov</text>
<text text-anchor="middle" x="247.25" y="-1600.85" font-family="Times New Roman,serif" font-size="14.00">0x107c: mov</text>
<text text-anchor="middle" x="247.25" y="-1585.85" font-family="Times New Roman,serif" font-size="14.00">0x1083: mov</text>
<text text-anchor="middle" x="247.25" y="-1570.85" font-family="Times New Roman,serif" font-size="14.00">0x1086: mov</text>
<text text-anchor="middle" x="247.25" y="-1555.85" font-family="Times New Roman,serif" font-size="14.00">0x1089: mov</text>
<text text-anchor="middle" x="247.25" y="-1540.85" font-family="Times New Roman,serif" font-size="14.00">0x108b: call</text>
</g>
<!-- N_0x1068&#45;&gt;N_0x1054 -->
<g id="edge5" class="edge">
<title>N_0x1068&#45;&gt;N_0x1054</title>
<path fill="none" stroke="black" d="M247.25,-1499.63C247.25,-1486.82 247.25,-1473.75 247.25,-1460.94"/>
<polygon fill="black" stroke="black" points="250.75,-1461.27 247.25,-1451.27 243.75,-1461.27 250.75,-1461.27"/>
<text text-anchor="middle" x="298.25" y="-1471.13" font-family="Times New Roman,serif" font-size="14.00">0x1068 &#45;&gt; 0x1054</text>
</g>
<!-- N_0x1099 -->
<g id="node5" class="node">
<title>N_0x1099</title>
<ellipse fill="none" stroke="black" cx="175.25" cy="-1011.45" rx="62.87" ry="58.88"/>
<text text-anchor="middle" x="175.25" y="-1037.75" font-family="Times New Roman,serif" font-size="14.00">0x1099: mov</text>
<text text-anchor="middle" x="175.25" y="-1022.75" font-family="Times New Roman,serif" font-size="14.00">0x109c: mov</text>
<text text-anchor="middle" x="175.25" y="-1007.75" font-family="Times New Roman,serif" font-size="14.00">0x109e: lea</text>
<text text-anchor="middle" x="175.25" y="-992.75" font-family="Times New Roman,serif" font-size="14.00">0x10a5: mov</text>
<text text-anchor="middle" x="175.25" y="-977.75" font-family="Times New Roman,serif" font-size="14.00">0x10a8: call</text>
</g>
<!-- N_0x1090&#45;&gt;N_0x1099 -->
<g id="edge7" class="edge">
<title>N_0x1090&#45;&gt;N_0x1099</title>
<path fill="none" stroke="black" d="M210.27,-1128.21C202.96,-1120.76 196.07,-1112.25 191.25,-1103.14 187.68,-1096.4 184.88,-1089.03 182.7,-1081.48"/>
<polygon fill="black" stroke="black" points="186.11,-1080.69 180.28,-1071.84 179.32,-1082.39 186.11,-1080.69"/>
<text text-anchor="middle" x="242.25" y="-1091.94" font-family="Times New Roman,serif" font-size="14.00">0x1090 &#45;&gt; 0x1099</text>
</g>
<!-- N_0x10af -->
<g id="node7" class="node">
<title>N_0x10af</title>
<ellipse fill="none" stroke="black" cx="320.25" cy="-1011.45" rx="63.78" ry="58.88"/>
<text text-anchor="middle" x="320.25" y="-1037.75" font-family="Times New Roman,serif" font-size="14.00">0x10af: mov</text>
<text text-anchor="middle" x="320.25" y="-1022.75" font-family="Times New Roman,serif" font-size="14.00">0x10b2: mov</text>
<text text-anchor="middle" x="320.25" y="-1007.75" font-family="Times New Roman,serif" font-size="14.00">0x10b4: lea</text>
<text text-anchor="middle" x="320.25" y="-992.75" font-family="Times New Roman,serif" font-size="14.00">0x10bb: mov</text>
<text text-anchor="middle" x="320.25" y="-977.75" font-family="Times New Roman,serif" font-size="14.00">0x10be: call</text>
</g>
<!-- N_0x1090&#45;&gt;N_0x10af -->
<g id="edge6" class="edge">
<title>N_0x1090&#45;&gt;N_0x10af</title>
<path fill="none" stroke="black" d="M278.05,-1125.5C283.67,-1118.51 289.07,-1110.88 293.25,-1103.14 297.11,-1095.99 300.49,-1088.21 303.43,-1080.32"/>
<polygon fill="black" stroke="black" points="306.7,-1081.55 306.67,-1070.96 300.09,-1079.26 306.7,-1081.55"/>
<text text-anchor="middle" x="349.75" y="-1091.94" font-family="Times New Roman,serif" font-size="14.00">0x1090 &#45;&gt; 0x10af</text>
</g>
<!-- N_0x1099&#45;&gt;N_0x1000 -->
<g id="edge8" class="edge">
<title>N_0x1099&#45;&gt;N_0x1000</title>
<path fill="none" stroke="black" d="M185.25,-952.86C187.2,-941.86 189.26,-930.45 191.25,-919.76 195.33,-897.72 199.67,-874.74 204.06,-851.8"/>
<polygon fill="black" stroke="black" points="207.48,-852.51 205.93,-842.04 200.61,-851.2 207.48,-852.51"/>
<text text-anchor="middle" x="242.25" y="-923.56" font-family="Times New Roman,serif" font-size="14.00">0x1099 &#45;&gt; 0x1000</text>
</g>
<!-- N_0x10dd -->
<g id="node11" class="node">
<title>N_0x10dd</title>
<ellipse fill="none" stroke="black" cx="184.25" cy="-195.25" rx="63.78" ry="26.74"/>
<text text-anchor="middle" x="184.25" y="-199.05" font-family="Times New Roman,serif" font-size="14.00">0x10dd: cmp</text>
<text text-anchor="middle" x="184.25" y="-184.05" font-family="Times New Roman,serif" font-size="14.00">0x10e1: jg</text>
</g>
<!-- N_0x10ad&#45;&gt;N_0x10dd -->
<g id="edge9" class="edge">
<title>N_0x10ad&#45;&gt;N_0x10dd</title>
<path fill="none" stroke="black" d="M58.89,-272.92C61.94,-262.27 67.27,-248.99 76.25,-240.12 88.06,-228.45 103.39,-219.75 118.78,-213.32"/>
<polygon fill="black" stroke="black" points="119.92,-216.63 127.99,-209.77 117.4,-210.1 119.92,-216.63"/>
<text text-anchor="middle" x="127.75" y="-243.92" font-family="Times New Roman,serif" font-size="14.00">0x10ad &#45;&gt; 0x10dd</text>
</g>
<!-- N_0x10af&#45;&gt;N_0x1000 -->
<g id="edge10" class="edge">
<title>N_0x10af&#45;&gt;N_0x1000</title>
<path fill="none" stroke="black" d="M309.16,-952.97C303.8,-925.2 297,-889.93 289.88,-852.99"/>
<polygon fill="black" stroke="black" points="293.38,-852.65 288.04,-843.49 286.5,-853.97 293.38,-852.65"/>
<text text-anchor="middle" x="354.75" y="-923.56" font-family="Times New Roman,serif" font-size="14.00">0x10af &#45;&gt; 0x1000</text>
</g>
<!-- N_0x10c3&#45;&gt;N_0x10dd -->
<g id="edge11" class="edge">
<title>N_0x10c3&#45;&gt;N_0x10dd</title>
<path fill="none" stroke="black" d="M183.15,-272.99C183.12,-263.34 183.12,-251.06 183.25,-240.12 183.27,-237.95 183.3,-235.72 183.34,-233.47"/>
<polygon fill="black" stroke="black" points="186.83,-233.81 183.53,-223.74 179.83,-233.67 186.83,-233.81"/>
<text text-anchor="middle" x="234.75" y="-243.92" font-family="Times New Roman,serif" font-size="14.00">0x10c3 &#45;&gt; 0x10dd</text>
</g>
<!-- N_0x10c5 -->
<g id="node9" class="node">
<title>N_0x10c5</title>
<ellipse fill="none" stroke="black" cx="382.25" cy="-58.69" rx="62.87" ry="58.88"/>
<text text-anchor="middle" x="382.25" y="-84.99" font-family="Times New Roman,serif" font-size="14.00">0x10c5: mov</text>
<text text-anchor="middle" x="382.25" y="-69.99" font-family="Times New Roman,serif" font-size="14.00">0x10c8: mov</text>
<text text-anchor="middle" x="382.25" y="-54.99" font-family="Times New Roman,serif" font-size="14.00">0x10ca: lea</text>
<text text-anchor="middle" x="382.25" y="-39.99" font-family="Times New Roman,serif" font-size="14.00">0x10d1: mov</text>
<text text-anchor="middle" x="382.25" y="-24.99" font-family="Times New Roman,serif" font-size="14.00">0x10d4: call</text>
</g>
<!-- N_0x10c5&#45;&gt;N_0x1000 -->
<g id="edge12" class="edge">
<title>N_0x10c5&#45;&gt;N_0x1000</title>
<path fill="none" stroke="black" d="M410.55,-111.54C413.72,-119.34 416.45,-127.43 418.25,-135.38 438.48,-225.05 437.29,-253.67 412.25,-342.12 392.22,-412.84 351.16,-484.58 315.01,-538.75"/>
<polygon fill="black" stroke="black" points="312.32,-536.46 309.63,-546.71 318.13,-540.38 312.32,-536.46"/>
<text text-anchor="middle" x="482.25" y="-243.92" font-family="Times New Roman,serif" font-size="14.00">0x10c5 &#45;&gt; 0x1000</text>
</g>
<!-- N_0x10d9&#45;&gt;N_0x10dd -->
<g id="edge13" class="edge">
<title>N_0x10d9&#45;&gt;N_0x10dd</title>
<path fill="none" stroke="black" d="M306.07,-272.96C302.11,-262.33 295.7,-249.05 286.25,-240.12 275.24,-229.73 261.4,-221.59 247.49,-215.29"/>
<polygon fill="black" stroke="black" points="248.86,-212.07 238.28,-211.42 246.14,-218.52 248.86,-212.07"/>
<text text-anchor="middle" x="350.25" y="-243.92" font-family="Times New Roman,serif" font-size="14.00">0x10d9 &#45;&gt; 0x10dd</text>
</g>
<!-- N_0x10dd&#45;&gt;N_0x10c5 -->
<g id="edge14" class="edge">
<title>N_0x10dd&#45;&gt;N_0x10c5</title>
<path fill="none" stroke="black" d="M234.49,-178.34C253.13,-171.25 273.94,-161.88 291.25,-150.38 307.09,-139.86 322.47,-126.28 335.94,-112.86"/>
<polygon fill="black" stroke="black" points="338.09,-115.67 342.59,-106.07 333.09,-110.77 338.09,-115.67"/>
<text text-anchor="middle" x="362.75" y="-139.18" font-family="Times New Roman,serif" font-size="14.00">0x10dd &#45;&gt; 0x10c5</text>
</g>
<!-- N_0x10e3 -->
<g id="node12" class="node">
<title>N_0x10e3</title>
<ellipse fill="none" stroke="black" cx="184.25" cy="-58.69" rx="62.45" ry="48.17"/>
<text text-anchor="middle" x="184.25" y="-77.49" font-family="Times New Roman,serif" font-size="14.00">0x10e3: mov</text>
<text text-anchor="middle" x="184.25" y="-62.49" font-family="Times New Roman,serif" font-size="14.00">0x10e8: add</text>
<text text-anchor="middle" x="184.25" y="-47.49" font-family="Times New Roman,serif" font-size="14.00">0x10ec: pop</text>
<text text-anchor="middle" x="184.25" y="-32.49" font-family="Times New Roman,serif" font-size="14.00">0x10ed: ret</text>
</g>
<!-- N_0x10dd&#45;&gt;N_0x10e3 -->
<g id="edge15" class="edge">
<title>N_0x10dd&#45;&gt;N_0x10e3</title>
<path fill="none" stroke="black" d="M184.25,-168.31C184.25,-154.15 184.25,-136 184.25,-118.61"/>
<polygon fill="black" stroke="black" points="187.75,-118.86 184.25,-108.86 180.75,-118.86 187.75,-118.86"/>
<text text-anchor="middle" x="235.75" y="-139.18" font-family="Times New Roman,serif" font-size="14.00">0x10dd &#45;&gt; 0x10e3</text>
</g>
<!-- N_0x10ee -->
<g id="node13" class="node">
<title>N_0x10ee</title>
<ellipse fill="none" stroke="black" cx="389.25" cy="-1612.05" rx="59.29" ry="37.45"/>
<text text-anchor="middle" x="389.25" y="-1623.35" font-family="Times New Roman,serif" font-size="14.00">0x10ee: nop</text>
<text text-anchor="middle" x="389.25" y="-1608.35" font-family="Times New Roman,serif" font-size="14.00">0x10ef: nop</text>
<text text-anchor="middle" x="389.25" y="-1593.35" font-family="Times New Roman,serif" font-size="14.00">0x10ef: nop</text>
</g>
</g>
</svg>
